<svg width="140" height="24" viewBox="0 0 140 24" fill="none" xmlns="http://www.w3.org/2000/svg">
<path d="M10.7061 3.19531C11.2856 2.20734 12.7144 2.20734 13.2939 3.19531L15.0195 6.13965C15.372 6.74086 15.9599 7.16794 16.6406 7.31738L19.9736 8.04883C21.0925 8.29463 21.5341 9.65319 20.7734 10.5098L18.5068 13.0615C18.0442 13.5824 17.8196 14.2725 17.8877 14.9658L18.2217 18.3623C18.3338 19.5026 17.1777 20.3428 16.1279 19.8838L13.002 18.5166C12.3634 18.2374 11.6366 18.2374 10.998 18.5166L7.87207 19.8838C6.82226 20.3428 5.66624 19.5026 5.77832 18.3623L6.1123 14.9658C6.1804 14.2725 5.95579 13.5824 5.49316 13.0615L3.22656 10.5098C2.46593 9.6532 2.90747 8.29463 4.02637 8.04883L7.35938 7.31738C8.04008 7.16794 8.62799 6.74086 8.98047 6.13965L10.7061 3.19531Z" stroke="#FF8D4D"/>
<path d="M39.7061 3.19531C40.2856 2.20734 41.7144 2.20734 42.2939 3.19531L44.0195 6.13965C44.372 6.74086 44.9599 7.16794 45.6406 7.31738L48.9736 8.04883C50.0925 8.29463 50.5341 9.65319 49.7734 10.5098L47.5068 13.0615C47.0442 13.5824 46.8196 14.2725 46.8877 14.9658L47.2217 18.3623C47.3338 19.5026 46.1777 20.3428 45.1279 19.8838L42.002 18.5166C41.3634 18.2374 40.6366 18.2374 39.998 18.5166L36.8721 19.8838C35.8223 20.3428 34.6662 19.5026 34.7783 18.3623L35.1123 14.9658C35.1804 14.2725 34.9558 13.5824 34.4932 13.0615L32.2266 10.5098C31.4659 9.6532 31.9075 8.29463 33.0264 8.04883L36.3594 7.31738C37.0401 7.16794 37.628 6.74086 37.9805 6.13965L39.7061 3.19531Z" stroke="#FF8D4D"/>
<path d="M68.7061 3.19531C69.2856 2.20734 70.7144 2.20734 71.2939 3.19531L73.0195 6.13965C73.372 6.74086 73.9599 7.16794 74.6406 7.31738L77.9736 8.04883C79.0925 8.29463 79.5341 9.65319 78.7734 10.5098L76.5068 13.0615C76.0442 13.5824 75.8196 14.2725 75.8877 14.9658L76.2217 18.3623C76.3338 19.5026 75.1777 20.3428 74.1279 19.8838L71.002 18.5166C70.3634 18.2374 69.6366 18.2374 68.998 18.5166L65.8721 19.8838C64.8223 20.3428 63.6662 19.5026 63.7783 18.3623L64.1123 14.9658C64.1804 14.2725 63.9558 13.5824 63.4932 13.0615L61.2266 10.5098C60.4659 9.6532 60.9075 8.29463 62.0264 8.04883L65.3594 7.31738C66.0401 7.16794 66.628 6.74086 66.9805 6.13965L68.7061 3.19531Z" stroke="#FF8D4D"/>
<path d="M97.7061 3.19531C98.2856 2.20734 99.7144 2.20734 100.294 3.19531L102.02 6.13965C102.372 6.74086 102.96 7.16794 103.641 7.31738L106.974 8.04883C108.093 8.29463 108.534 9.65319 107.773 10.5098L105.507 13.0615C105.044 13.5824 104.82 14.2725 104.888 14.9658L105.222 18.3623C105.334 19.5026 104.178 20.3428 103.128 19.8838L100.002 18.5166C99.3634 18.2374 98.6366 18.2374 97.998 18.5166L94.8721 19.8838C93.8223 20.3428 92.6662 19.5026 92.7783 18.3623L93.1123 14.9658C93.1804 14.2725 92.9558 13.5824 92.4932 13.0615L90.2266 10.5098C89.4659 9.6532 89.9075 8.29463 91.0264 8.04883L94.3594 7.31738C95.0401 7.16794 95.628 6.74086 95.9805 6.13965L97.7061 3.19531Z" stroke="#FF8D4D"/>
<path d="M126.706 3.19531C127.286 2.20734 128.714 2.20734 129.294 3.19531L131.02 6.13965C131.372 6.74086 131.96 7.16794 132.641 7.31738L135.974 8.04883C137.093 8.29463 137.534 9.65319 136.773 10.5098L134.507 13.0615C134.044 13.5824 133.82 14.2725 133.888 14.9658L134.222 18.3623C134.334 19.5026 133.178 20.3428 132.128 19.8838L129.002 18.5166C128.363 18.2374 127.637 18.2374 126.998 18.5166L123.872 19.8838C122.822 20.3428 121.666 19.5026 121.778 18.3623L122.112 14.9658C122.18 14.2725 121.956 13.5824 121.493 13.0615L119.227 10.5098C118.466 9.6532 118.907 8.29463 120.026 8.04883L123.359 7.31738C124.04 7.16794 124.628 6.74086 124.98 6.13965L126.706 3.19531Z" stroke="#FF8D4D"/>
</svg>
